# Blender v2.79 (sub 0) OBJ File: 'bssrdf_experiment.blend'
# www.blender.org
o plane
v 1.500000 -1.500000 0.010000
v -1.500000 -1.500000 -0.010000
v 1.500000 -1.500000 -0.010000
v -1.500000 1.500000 -0.010000
v 1.499998 1.500000 0.010000
v 1.500000 1.500000 -0.010000
v -1.500000 -1.500000 0.010000
v -1.500000 1.500000 0.010000
vn 0.0000 -1.0000 0.0000
vn 0.0000 1.0000 -0.0000
vn 1.0000 -0.0000 -0.0007
vn 1.0000 -0.0000 0.0009
vn 1.0000 0.0000 0.0000
vn 0.0000 -0.0000 1.0000
vn -1.0000 0.0000 -0.0005
vn 0.0000 0.0000 -1.0000
vn 1.0000 0.0000 0.0001
vn -1.0000 0.0000 0.0000
s 1
f 1//1 2//1 3//1
f 4//2 5//2 6//2
f 6//3 1//4 3//5
f 5//6 7//6 1//6
f 8//7 2//7 7//7
f 3//8 4//8 6//8
f 1//1 7//1 2//1
f 4//2 8//2 5//2
f 6//3 5//9 1//4
f 5//6 8//6 7//6
f 8//7 4//10 2//7
f 3//8 2//8 4//8
